<svg width="36" height="35" viewBox="0 0 36 35" fill="none" xmlns="http://www.w3.org/2000/svg">
<path d="M9.6642 0C9.64872 0.805157 9.61775 1.58913 9.56356 2.35426H23.134C23.1572 1.58285 23.165 0.798879 23.1495 0H9.6642ZM9.44744 3.76682C8.44882 13.6155 4.24376 20.1603 0 25.5987L8.92878 34.6547C16.8249 24.8061 22.3212 15.9697 23.0721 3.76682H20.8116C20.6413 7.61211 19.1085 12.3834 17.0494 17.0056C14.967 21.6749 12.3349 26.1872 9.91192 29.3733L8.92104 28.3688C11.2202 25.3004 13.7748 20.9215 15.7798 16.4249C17.7848 11.9204 19.2401 7.27466 19.4182 3.76682H17.0958C16.9255 7.61211 15.3927 12.3834 13.3336 17.0056C11.6924 20.6861 9.71065 24.2724 7.75211 27.1839L6.75348 26.1637C8.60365 23.37 10.5003 19.9327 12.064 16.4249C14.069 11.9204 15.5243 7.27466 15.7024 3.76682H13.38C13.2097 7.61211 11.6769 12.3834 9.61775 17.0056C8.38689 19.7758 6.9625 22.4832 5.4994 24.8924L4.48529 23.8644C5.84775 21.5729 7.19474 19.0224 8.34819 16.4249C10.3532 11.9204 11.8085 7.27466 11.9866 3.76682H9.44744ZM24.3107 15.4596C24.2333 15.648 24.1481 15.8677 24.063 16.1424C23.792 17.0291 23.5211 18.2691 23.2888 19.5168C22.9792 21.1883 22.7547 22.7971 22.6308 23.6996H25.9905C25.8667 22.7971 25.6422 21.1883 25.3325 19.5168C25.1003 18.2691 24.8293 17.0291 24.5584 16.1424C24.4732 15.8677 24.3881 15.648 24.3107 15.4596ZM29.2651 15.4596C29.1877 15.648 29.1025 15.8677 29.0174 16.1424C28.7464 17.0291 28.4755 18.2691 28.2432 19.5168C27.9336 21.1883 27.7091 22.7971 27.5852 23.6996H30.945C30.8211 22.7971 30.5966 21.1883 30.2869 19.5168C30.0547 18.2691 29.7838 17.0291 29.5128 16.1424C29.4277 15.8677 29.3425 15.648 29.2651 15.4596ZM34.2195 15.4596C34.1421 15.648 34.0569 15.8677 33.9718 16.1424C33.7008 17.0291 33.4299 18.2691 33.1977 19.5168C32.888 21.1883 32.6635 22.7971 32.5396 23.6996H35.8994C35.7755 22.7971 35.551 21.1883 35.2414 19.5168C35.0091 18.2691 34.7382 17.0291 34.4672 16.1424C34.3821 15.8677 34.2969 15.648 34.2195 15.4596ZM22.5302 25.1121V35H26.0912V25.1121H22.5302ZM27.4846 25.1121V35H31.0456V25.1121H27.4846ZM32.439 25.1121V35H36V25.1121H32.439Z" fill="#1FA2FF"/>
</svg>
