<svg width="19" height="14" viewBox="0 0 19 14" fill="none" xmlns="http://www.w3.org/2000/svg">
<path d="M10.5764 0.373061C10.8309 0.13419 11.176 0 11.5359 0C11.8958 0 12.2409 0.13419 12.4954 0.373061L18.6026 6.10685C18.8571 6.34579 19 6.66983 19 7.00769C19 7.34556 18.8571 7.66959 18.6026 7.90853L12.4954 13.6423C12.2394 13.8744 11.8966 14.0029 11.5408 14C11.1849 13.997 10.8445 13.863 10.5929 13.6268C10.3413 13.3906 10.1985 13.071 10.1955 12.7369C10.1924 12.4028 10.3292 12.081 10.5764 11.8406L14.2502 8.28187H1.35716C0.997221 8.28187 0.652022 8.14762 0.397504 7.90867C0.142986 7.66972 0 7.34562 0 7.00769C0 6.66976 0.142986 6.34567 0.397504 6.10671C0.652022 5.86776 0.997221 5.73352 1.35716 5.73352H14.2502L10.5764 2.17475C10.3219 1.9358 10.179 1.61177 10.179 1.2739C10.179 0.936038 10.3219 0.612004 10.5764 0.373061Z" fill="white" fill-opacity="0.5"/>
</svg>
