<svg width="36" height="35" viewBox="0 0 36 35" fill="none" xmlns="http://www.w3.org/2000/svg">
<path d="M26.3716 20.4167C26.8157 20.4167 27.2417 20.2411 27.5557 19.9285C27.8697 19.6159 28.0461 19.192 28.0461 18.75C28.0461 18.308 27.8697 17.884 27.5557 17.5715C27.2417 17.2589 26.8157 17.0833 26.3716 17.0833C25.9275 17.0833 25.5016 17.2589 25.1876 17.5715C24.8736 17.884 24.6971 18.308 24.6971 18.75C24.6971 19.192 24.8736 19.6159 25.1876 19.9285C25.5016 20.2411 25.9275 20.4167 26.3716 20.4167ZM26.3716 27.0833C26.8157 27.0833 27.2417 26.9077 27.5557 26.5952C27.8697 26.2826 28.0461 25.8587 28.0461 25.4167C28.0461 24.9746 27.8697 24.5507 27.5557 24.2382C27.2417 23.9256 26.8157 23.75 26.3716 23.75C25.9275 23.75 25.5016 23.9256 25.1876 24.2382C24.8736 24.5507 24.6971 24.9746 24.6971 25.4167C24.6971 25.8587 24.8736 26.2826 25.1876 26.5952C25.5016 26.9077 25.9275 27.0833 26.3716 27.0833ZM19.6737 18.75C19.6737 19.192 19.4972 19.6159 19.1832 19.9285C18.8692 20.2411 18.4433 20.4167 17.9992 20.4167C17.5551 20.4167 17.1291 20.2411 16.8151 19.9285C16.5011 19.6159 16.3247 19.192 16.3247 18.75C16.3247 18.308 16.5011 17.884 16.8151 17.5715C17.1291 17.2589 17.5551 17.0833 17.9992 17.0833C18.4433 17.0833 18.8692 17.2589 19.1832 17.5715C19.4972 17.884 19.6737 18.308 19.6737 18.75ZM19.6737 25.4167C19.6737 25.8587 19.4972 26.2826 19.1832 26.5952C18.8692 26.9077 18.4433 27.0833 17.9992 27.0833C17.5551 27.0833 17.1291 26.9077 16.8151 26.5952C16.5011 26.2826 16.3247 25.8587 16.3247 25.4167C16.3247 24.9746 16.5011 24.5507 16.8151 24.2382C17.1291 23.9256 17.5551 23.75 17.9992 23.75C18.4433 23.75 18.8692 23.9256 19.1832 24.2382C19.4972 24.5507 19.6737 24.9746 19.6737 25.4167ZM9.62668 20.4167C10.0708 20.4167 10.4967 20.2411 10.8107 19.9285C11.1248 19.6159 11.3012 19.192 11.3012 18.75C11.3012 18.308 11.1248 17.884 10.8107 17.5715C10.4967 17.2589 10.0708 17.0833 9.62668 17.0833C9.18258 17.0833 8.75666 17.2589 8.44263 17.5715C8.1286 17.884 7.95218 18.308 7.95218 18.75C7.95218 19.192 8.1286 19.6159 8.44263 19.9285C8.75666 20.2411 9.18258 20.4167 9.62668 20.4167ZM9.62668 27.0833C10.0708 27.0833 10.4967 26.9077 10.8107 26.5952C11.1248 26.2826 11.3012 25.8587 11.3012 25.4167C11.3012 24.9746 11.1248 24.5507 10.8107 24.2382C10.4967 23.9256 10.0708 23.75 9.62668 23.75C9.18258 23.75 8.75666 23.9256 8.44263 24.2382C8.1286 24.5507 7.95218 24.9746 7.95218 25.4167C7.95218 25.8587 8.1286 26.2826 8.44263 26.5952C8.75666 26.9077 9.18258 27.0833 9.62668 27.0833Z" fill="#1FA2FF"/>
<path fill-rule="evenodd" clip-rule="evenodd" d="M9.62668 0C9.95976 0 10.2792 0.131696 10.5147 0.366117C10.7502 0.600537 10.8826 0.918479 10.8826 1.25V2.52167C11.9911 2.5 13.2118 2.5 14.5547 2.5H21.4419C22.7865 2.5 24.0073 2.5 25.1158 2.52167V1.25C25.1158 0.918479 25.2481 0.600537 25.4836 0.366117C25.7191 0.131696 26.0386 0 26.3716 0C26.7047 0 27.0242 0.131696 27.2597 0.366117C27.4952 0.600537 27.6275 0.918479 27.6275 1.25V2.62833C28.0629 2.66167 28.4754 2.70389 28.865 2.755C30.8275 3.01833 32.4166 3.57167 33.6708 4.81833C34.9233 6.06667 35.4792 7.64833 35.7438 9.60167C36 11.5017 36 13.9267 36 16.99V20.51C36 23.5733 36 26 35.7438 27.8983C35.4792 29.8517 34.9233 31.4333 33.6708 32.6817C32.4166 33.9283 30.8275 34.4817 28.865 34.745C26.956 35 24.5196 35 21.4419 35H14.5581C11.4803 35 9.04228 35 7.13503 34.745C5.17252 34.4817 3.58342 33.9283 2.32922 32.6817C1.0767 31.4333 0.520768 29.8517 0.256198 27.8983C0 25.9983 0 23.5733 0 20.51V16.99C0 13.9267 0 11.5 0.256198 9.60167C0.520768 7.64833 1.0767 6.06667 2.32922 4.81833C3.58342 3.57167 5.17252 3.01833 7.13503 2.755C7.52575 2.70389 7.93823 2.66167 8.37248 2.62833V1.25C8.37248 0.918768 8.50457 0.601078 8.73973 0.366705C8.97489 0.132333 9.29389 0.000441643 9.62668 0ZM7.46658 5.23333C5.78371 5.45833 4.8125 5.88167 4.10419 6.58667C3.39588 7.29167 2.97056 8.25833 2.7445 9.93333C2.70654 10.2167 2.67417 10.5161 2.64738 10.8317H33.3509C33.3242 10.5161 33.2918 10.2161 33.2538 9.93167C33.0278 8.25667 32.6024 7.29 31.8941 6.585C31.1858 5.88 30.2146 5.45667 28.5301 5.23167C26.8104 5.00167 24.5414 4.99833 21.3482 4.99833H14.6502C11.4569 4.99833 9.18964 5.00333 7.46658 5.23333ZM2.51007 17.0833C2.51007 15.66 2.51007 14.4217 2.53184 13.3333H33.4665C33.4883 14.4217 33.4883 15.66 33.4883 17.0833V20.4167C33.4883 23.595 33.4849 25.8533 33.2538 27.5667C33.0278 29.2417 32.6024 30.2083 31.8941 30.9133C31.1858 31.6183 30.2146 32.0417 28.5301 32.2667C26.8104 32.4967 24.5414 32.5 21.3482 32.5H14.6502C11.4569 32.5 9.18964 32.4967 7.46658 32.2667C5.78371 32.0417 4.8125 31.6183 4.10419 30.9133C3.39588 30.2083 2.97056 29.2417 2.7445 27.565C2.51342 25.8533 2.51007 23.595 2.51007 20.4167V17.0833Z" fill="#1FA2FF"/>
</svg>
