<svg width="30" height="27" viewBox="0 0 30 27" fill="none" xmlns="http://www.w3.org/2000/svg">
<path d="M16.5123 4.49545L11.0577 16.858H1.09081L6.54539 10.6767L1.09081 4.49545H16.5123Z" fill="white"/>
<path d="M29.8269 0.515572C29.728 0.357363 29.5922 0.227252 29.4319 0.137173C29.2715 0.0470931 29.0918 -7.29611e-05 28.9092 8.47156e-08H18C17.7906 8.43416e-05 17.5857 0.0622534 17.4096 0.179084C17.2336 0.295915 17.0939 0.462471 17.0073 0.658865L15.81 3.37159H1.09081C0.879497 3.37161 0.672739 3.43486 0.495656 3.55364C0.318573 3.67243 0.178789 3.84164 0.0932885 4.04072C0.00778782 4.2398 -0.0197491 4.46018 0.0140236 4.67507C0.0477963 4.88997 0.141425 5.09014 0.283533 5.25125L5.07129 10.6767L0.283533 16.1022C0.141425 16.2633 0.0477963 16.4634 0.0140236 16.6783C-0.0197491 16.8932 0.00778782 17.1136 0.0932885 17.3127C0.178789 17.5118 0.318573 17.681 0.495656 17.7998C0.672739 17.9185 0.879497 17.9818 1.09081 17.9818H11.0577C11.2671 17.9817 11.472 17.9196 11.6481 17.8027C11.8241 17.6859 11.9638 17.5193 12.0504 17.323L13.2477 14.6102H21.7609L17.0073 25.3839C16.9434 25.5188 16.9065 25.6656 16.8986 25.8154C16.8908 25.9653 16.9121 26.1153 16.9615 26.2566C17.0108 26.3978 17.0871 26.5275 17.1858 26.6378C17.2846 26.7482 17.4038 26.8371 17.5364 26.8992C17.6691 26.9613 17.8125 26.9955 17.9581 26.9996C18.1038 27.0037 18.2487 26.9777 18.3845 26.9231C18.5202 26.8686 18.644 26.7865 18.7485 26.6819C18.8529 26.5773 18.936 26.4521 18.9927 26.3139L29.9019 1.58886C29.9775 1.41778 30.0103 1.22988 29.9972 1.04237C29.9841 0.854861 29.9255 0.673734 29.8269 0.515572ZM10.3554 15.7341H3.55628L7.35267 11.4325C7.53511 11.2257 7.6362 10.9562 7.6362 10.6767C7.6362 10.3972 7.53511 10.1278 7.35267 9.92091L3.55628 5.61932H14.8186L10.3554 15.7341ZM22.7523 12.3625H14.2391L18.7023 2.24773H27.2155L22.7523 12.3625Z" fill="white"/>
</svg>
