<svg width="113" height="26" viewBox="0 0 113 26" fill="none" xmlns="http://www.w3.org/2000/svg">
<path d="M10.6406 11.625H20.5V23.9375C17.8229 24.8542 14.8802 25.3125 11.6719 25.3125C8.15104 25.3125 5.42708 24.2917 3.5 22.25C1.58333 20.2083 0.625 17.2969 0.625 13.5156C0.625 9.82812 1.67708 6.95833 3.78125 4.90625C5.88542 2.85417 8.83333 1.82812 12.625 1.82812C14.0625 1.82812 15.4167 1.96354 16.6875 2.23438C17.9688 2.50521 19.0833 2.84896 20.0312 3.26562L18.0781 8.10938C16.4323 7.29688 14.625 6.89062 12.6562 6.89062C10.8542 6.89062 9.45833 7.47917 8.46875 8.65625C7.48958 9.82292 7 11.4948 7 13.6719C7 15.8073 7.44271 17.4375 8.32812 18.5625C9.22396 19.6771 10.5104 20.2344 12.1875 20.2344C13.1042 20.2344 13.9479 20.1458 14.7188 19.9688V16.3906H10.6406V11.625ZM42.5344 9.42188C42.5344 11.974 41.7792 13.9479 40.2687 15.3438C38.7687 16.7292 36.6333 17.4219 33.8625 17.4219H32.1281V25H25.9562V2.15625H33.8625C36.7479 2.15625 38.9146 2.78646 40.3625 4.04688C41.8104 5.30729 42.5344 7.09896 42.5344 9.42188ZM32.1281 12.3906H33.2531C34.1802 12.3906 34.9146 12.1302 35.4562 11.6094C36.0083 11.0885 36.2844 10.3698 36.2844 9.45312C36.2844 7.91146 35.4302 7.14062 33.7219 7.14062H32.1281V12.3906Z" fill="url(#paint0_linear_162_1066)"/>
<path d="M63.5219 16.1094C63.5219 19.0052 62.7406 21.2656 61.1781 22.8906C59.626 24.5052 57.449 25.3125 54.6469 25.3125C51.9594 25.3125 49.8187 24.4844 48.225 22.8281C46.6417 21.1719 45.85 18.9323 45.85 16.1094C45.85 13.224 46.626 10.9844 48.1781 9.39062C49.7406 7.78646 51.9281 6.98438 54.7406 6.98438C56.4802 6.98438 58.0167 7.35417 59.35 8.09375C60.6833 8.83333 61.7094 9.89583 62.4281 11.2812C63.1573 12.6562 63.5219 14.2656 63.5219 16.1094ZM52.0531 16.1094C52.0531 17.6302 52.2562 18.7917 52.6625 19.5938C53.0687 20.3854 53.751 20.7812 54.7094 20.7812C55.6573 20.7812 56.324 20.3854 56.7094 19.5938C57.1052 18.7917 57.3031 17.6302 57.3031 16.1094C57.3031 14.599 57.1052 13.4583 56.7094 12.6875C56.3135 11.9167 55.6365 11.5312 54.6781 11.5312C53.7406 11.5312 53.0687 11.9167 52.6625 12.6875C52.2562 13.4479 52.0531 14.5885 52.0531 16.1094ZM73.9625 25H67.8531V7.29688H73.9625V25ZM67.6969 2.89062C67.6969 1.97396 67.9521 1.29167 68.4625 0.84375C68.9729 0.395833 69.7958 0.171875 70.9313 0.171875C72.0667 0.171875 72.8948 0.401042 73.4156 0.859375C73.9365 1.31771 74.1969 1.99479 74.1969 2.89062C74.1969 4.68229 73.1083 5.57812 70.9313 5.57812C68.775 5.57812 67.6969 4.68229 67.6969 2.89062ZM90.2 25V15.3438C90.2 14.1667 90.0281 13.2812 89.6844 12.6875C89.351 12.0833 88.8094 11.7812 88.0594 11.7812C87.0281 11.7812 86.2833 12.1927 85.825 13.0156C85.3667 13.8385 85.1375 15.25 85.1375 17.25V25H79.0281V7.29688H83.6375L84.4031 9.48438H84.7625C85.2833 8.65104 86.0021 8.02604 86.9187 7.60938C87.8458 7.19271 88.9083 6.98438 90.1062 6.98438C92.0646 6.98438 93.5854 7.55208 94.6687 8.6875C95.7625 9.82292 96.3094 11.4219 96.3094 13.4844V25H90.2ZM109.938 20.4844C110.76 20.4844 111.745 20.2812 112.891 19.875V24.3281C112.068 24.6823 111.281 24.9323 110.531 25.0781C109.792 25.2344 108.922 25.3125 107.922 25.3125C105.87 25.3125 104.391 24.8125 103.484 23.8125C102.578 22.8021 102.125 21.2552 102.125 19.1719V11.875H99.9844V9.39062L102.703 7.46875L104.281 3.75H108.281V7.29688H112.625V11.875H108.281V18.7656C108.281 19.9115 108.833 20.4844 109.938 20.4844Z" fill="white"/>
<defs>
<linearGradient id="paint0_linear_162_1066" x1="0.6841" y1="29.2609" x2="115.784" y2="12.4809" gradientUnits="userSpaceOnUse">
<stop stop-color="#29A6FF"/>
<stop offset="1" stop-color="#129CFF"/>
</linearGradient>
</defs>
</svg>
