<svg width="31" height="32" viewBox="0 0 31 32" fill="none" xmlns="http://www.w3.org/2000/svg">
<path fill-rule="evenodd" clip-rule="evenodd" d="M5.16667 0.5C3.79638 0.5 2.48222 1.04434 1.51328 2.01328C0.544344 2.98222 0 4.29638 0 5.66667V26.3333C0 27.7036 0.544344 29.0178 1.51328 29.9867C2.48222 30.9557 3.79638 31.5 5.16667 31.5H25.8333C27.2036 31.5 28.5178 30.9557 29.4867 29.9867C30.4557 29.0178 31 27.7036 31 26.3333V5.66667C31 4.29638 30.4557 2.98222 29.4867 2.01328C28.5178 1.04434 27.2036 0.5 25.8333 0.5H5.16667ZM12.0556 9.11111C12.0556 8.65435 12.237 8.2163 12.56 7.89332C12.883 7.57034 13.321 7.38889 13.7778 7.38889H24.1111C24.5679 7.38889 25.0059 7.57034 25.3289 7.89332C25.6519 8.2163 25.8333 8.65435 25.8333 9.11111C25.8333 9.56787 25.6519 10.0059 25.3289 10.3289C25.0059 10.6519 24.5679 10.8333 24.1111 10.8333H13.7778C13.321 10.8333 12.883 10.6519 12.56 10.3289C12.237 10.0059 12.0556 9.56787 12.0556 9.11111ZM12.0556 16C12.0556 15.5432 12.237 15.1052 12.56 14.7822C12.883 14.4592 13.321 14.2778 13.7778 14.2778H24.1111C24.5679 14.2778 25.0059 14.4592 25.3289 14.7822C25.6519 15.1052 25.8333 15.5432 25.8333 16C25.8333 16.4568 25.6519 16.8948 25.3289 17.2178C25.0059 17.5408 24.5679 17.7222 24.1111 17.7222H13.7778C13.321 17.7222 12.883 17.5408 12.56 17.2178C12.237 16.8948 12.0556 16.4568 12.0556 16ZM12.0556 22.8889C12.0556 22.4321 12.237 21.9941 12.56 21.6711C12.883 21.3481 13.321 21.1667 13.7778 21.1667H24.1111C24.5679 21.1667 25.0059 21.3481 25.3289 21.6711C25.6519 21.9941 25.8333 22.4321 25.8333 22.8889C25.8333 23.3456 25.6519 23.7837 25.3289 24.1067C25.0059 24.4297 24.5679 24.6111 24.1111 24.6111H13.7778C13.321 24.6111 12.883 24.4297 12.56 24.1067C12.237 23.7837 12.0556 23.3456 12.0556 22.8889ZM6.88889 7.38889C6.43213 7.38889 5.99407 7.57034 5.67109 7.89332C5.34811 8.2163 5.16667 8.65435 5.16667 9.11111C5.16667 9.56787 5.34811 10.0059 5.67109 10.3289C5.99407 10.6519 6.43213 10.8333 6.88889 10.8333C7.34565 10.8333 7.78543 10.6519 8.10841 10.3289C8.43139 10.0059 8.61283 9.56787 8.61283 9.11111C8.61283 8.65435 8.43139 8.2163 8.10841 7.89332C7.78543 7.57034 7.34565 7.38889 6.88889 7.38889ZM5.16667 16C5.16667 15.5432 5.34811 15.1052 5.67109 14.7822C5.99407 14.4592 6.43213 14.2778 6.88889 14.2778C7.34565 14.2778 7.78543 14.4592 8.10841 14.7822C8.43139 15.1052 8.61283 15.5432 8.61283 16C8.61283 16.4568 8.43139 16.8948 8.10841 17.2178C7.78543 17.5408 7.34737 17.7222 6.89061 17.7222C6.43385 17.7222 5.99407 17.5408 5.67109 17.2178C5.34811 16.8948 5.16667 16.4568 5.16667 16ZM6.88889 21.1667C6.43213 21.1667 5.99407 21.3481 5.67109 21.6711C5.34811 21.9941 5.16667 22.4321 5.16667 22.8889C5.16667 23.3456 5.34811 23.7837 5.67109 24.1067C5.99407 24.4297 6.43213 24.6111 6.88889 24.6111C7.34565 24.6111 7.78543 24.4297 8.10841 24.1067C8.43139 23.7837 8.61283 23.3456 8.61283 22.8889C8.61283 22.4321 8.43139 21.9941 8.10841 21.6711C7.78543 21.3481 7.34565 21.1667 6.88889 21.1667Z" fill="#1FA2FF"/>
</svg>
