<svg width="16" height="16" viewBox="0 0 16 16" fill="none" xmlns="http://www.w3.org/2000/svg">
<path d="M8.32118 8.63953V13.7593C8.32118 14.0139 8.22006 14.258 8.04005 14.438C7.86004 14.6181 7.6159 14.7192 7.36133 14.7192C7.10676 14.7192 6.86262 14.6181 6.68261 14.438C6.50261 14.258 6.40148 14.0139 6.40148 13.7593V10.9594L1.64141 15.7184C1.55213 15.8076 1.44613 15.8785 1.32947 15.9268C1.21282 15.9751 1.08779 16 0.961517 16C0.835249 16 0.710217 15.9751 0.59356 15.9268C0.476904 15.8785 0.370907 15.8076 0.281622 15.7184C0.192337 15.6291 0.121512 15.523 0.0731911 15.4064C0.0248703 15.2897 0 15.1647 0 15.0384C0 14.9121 0.0248703 14.7871 0.0731911 14.6704C0.121512 14.5537 0.192337 14.4477 0.281622 14.3584L5.04169 9.59948H2.24212C1.98755 9.59948 1.74341 9.49834 1.5634 9.31832C1.38339 9.13829 1.28227 8.89413 1.28227 8.63953C1.28227 8.38494 1.38339 8.14077 1.5634 7.96075C1.74341 7.78072 1.98755 7.67958 2.24212 7.67958H7.36133C7.6159 7.67958 7.86004 7.78072 8.04005 7.96075C8.22006 8.14077 8.32118 8.38494 8.32118 8.63953ZM14.4002 0H4.16182C3.73754 0 3.33064 0.168562 3.03063 0.468604C2.73062 0.768646 2.56207 1.17559 2.56207 1.59991V5.11972C2.56207 5.37432 2.6632 5.61848 2.8432 5.79851C3.02321 5.97853 3.26735 6.07967 3.52192 6.07967C3.77649 6.07967 4.02063 5.97853 4.20064 5.79851C4.38065 5.61848 4.48177 5.37432 4.48177 5.11972V1.9199H14.0803V11.5194H10.8808C10.6262 11.5194 10.3821 11.6205 10.2021 11.8005C10.0221 11.9806 9.92094 12.2247 9.92094 12.4793C9.92094 12.7339 10.0221 12.9781 10.2021 13.1581C10.3821 13.3381 10.6262 13.4393 10.8808 13.4393H14.4002C14.8245 13.4393 15.2314 13.2707 15.5314 12.9707C15.8315 12.6706 16 12.2637 16 11.8394V1.59991C16 1.17559 15.8315 0.768646 15.5314 0.468604C15.2314 0.168562 14.8245 0 14.4002 0Z" fill="white" fill-opacity="0.6"/>
</svg>
