<svg width="47" height="35" viewBox="0 0 47 35" fill="none" xmlns="http://www.w3.org/2000/svg">
<path d="M32.9 30.3333V35H0V30.3333C0 30.3333 0 21 16.45 21C32.9 21 32.9 30.3333 32.9 30.3333ZM24.675 8.16673C24.675 6.55152 24.1926 4.97259 23.2888 3.62959C22.3851 2.28659 21.1005 1.23985 19.5976 0.621735C18.0946 0.00362108 16.4409 -0.158106 14.8454 0.157006C13.2499 0.472118 11.7843 1.24992 10.634 2.39204C9.48376 3.53417 8.7004 4.98932 8.38304 6.5735C8.06568 8.15767 8.22856 9.79971 8.85109 11.292C9.47362 12.7842 10.5278 14.0597 11.8804 14.9571C13.233 15.8544 14.8232 16.3334 16.45 16.3334C18.6314 16.3334 20.7235 15.473 22.266 13.9414C23.8084 12.4099 24.675 10.3327 24.675 8.16673ZM32.759 21C34.2037 22.1101 35.3858 23.521 36.2221 25.1335C37.0585 26.746 37.5288 28.5209 37.6 30.3333V35H47V30.3333C47 30.3333 47 21.8634 32.759 21ZM30.55 8.58583e-05C28.9327 -0.00738344 27.3512 0.472657 26.0145 1.37675C27.442 3.35713 28.2095 5.73141 28.2095 8.16673C28.2095 10.6021 27.442 12.9763 26.0145 14.9567C27.3512 15.8608 28.9327 16.3408 30.55 16.3334C32.7314 16.3334 34.8235 15.473 36.366 13.9414C37.9084 12.4099 38.775 10.3327 38.775 8.16673C38.775 6.0008 37.9084 3.92358 36.366 2.39204C34.8235 0.860498 32.7314 8.58583e-05 30.55 8.58583e-05Z" fill="#1FA2FF"/>
</svg>
