<svg width="24" height="25" viewBox="0 0 24 25" fill="none" xmlns="http://www.w3.org/2000/svg">
<path d="M24 7.42429V7.51224C24 8.54837 24 9.06765 23.7516 9.49174C23.5032 9.91583 23.0508 10.1676 22.1484 10.6724L21.1968 11.2026C21.852 8.97608 22.0716 6.58333 22.152 4.53757L22.164 4.27131L22.1664 4.20866C22.9476 4.48095 23.3868 4.68456 23.6604 5.06528C24 5.53877 24 6.16767 24 7.42429ZM0 7.42429V7.51224C0 8.54837 2.98023e-08 9.06765 0.2484 9.49174C0.4968 9.91583 0.9492 10.1676 1.8516 10.6724L2.8044 11.2026C2.148 8.97608 1.9284 6.58333 1.848 4.53757L1.836 4.27131L1.8348 4.20866C1.0524 4.48095 0.6132 4.68456 0.3396 5.06528C0 5.53877 0 6.16888 0 7.42429Z" fill="#B1B1B1"/>
<path fill-rule="evenodd" clip-rule="evenodd" d="M12 0.000272762C14.1408 0.000272762 15.9036 0.189427 17.2524 0.41834C18.6192 0.649663 19.302 0.765324 19.8732 1.47134C20.4444 2.17736 20.4132 2.94 20.3532 4.46528C20.1468 9.70499 19.0212 16.2483 12.9 16.8266V21.0844H14.616C14.8933 21.0845 15.162 21.1811 15.3764 21.3577C15.5908 21.5343 15.7376 21.78 15.792 22.053L16.02 23.1928H19.2C19.4387 23.1928 19.6676 23.288 19.8364 23.4574C20.0052 23.6269 20.1 23.8567 20.1 24.0964C20.1 24.336 20.0052 24.5659 19.8364 24.7353C19.6676 24.9048 19.4387 25 19.2 25H4.8C4.56131 25 4.33239 24.9048 4.1636 24.7353C3.99482 24.5659 3.9 24.336 3.9 24.0964C3.9 23.8567 3.99482 23.6269 4.1636 23.4574C4.33239 23.288 4.56131 23.1928 4.8 23.1928H7.98L8.208 22.053C8.26235 21.78 8.40921 21.5343 8.6236 21.3577C8.83799 21.1811 9.10669 21.0845 9.384 21.0844H11.1V16.8266C4.98 16.2483 3.8544 9.70378 3.648 4.46528C3.5868 2.94 3.5568 2.17615 4.128 1.47134C4.698 0.765324 5.3808 0.649663 6.7476 0.41834C8.4838 0.132797 10.2407 -0.00704251 12 0.000272762ZM13.1424 5.05925L13.0248 4.84721C12.5688 4.02432 12.3408 3.61469 12 3.61469C11.6592 3.61469 11.4312 4.02432 10.9752 4.84721L10.8576 5.05925C10.728 5.29299 10.6632 5.40865 10.5624 5.48576C10.4604 5.56286 10.3344 5.59178 10.0824 5.6484L9.8544 5.70142C8.9688 5.90262 8.526 6.00262 8.4204 6.34237C8.3148 6.68213 8.6172 7.03754 9.2208 7.74597L9.3768 7.9291C9.5484 8.13031 9.6348 8.2303 9.6732 8.3556C9.7116 8.4809 9.6984 8.61464 9.6732 8.88331L9.6492 9.12788C9.558 10.0737 9.5124 10.5471 9.7872 10.7568C10.0632 10.9664 10.4784 10.7749 11.3076 10.3917L11.5212 10.2929C11.7576 10.1845 11.8752 10.1303 12 10.1303C12.1248 10.1303 12.2424 10.1845 12.4788 10.2929L12.6924 10.3917C13.5216 10.7761 13.9368 10.9664 14.2128 10.7568C14.4888 10.5471 14.442 10.0737 14.3508 9.12788L14.3268 8.88331C14.3016 8.61464 14.2884 8.4809 14.3268 8.3556C14.3652 8.2303 14.4516 8.13031 14.6232 7.9291L14.7792 7.74597C15.3828 7.03754 15.6852 6.68333 15.5796 6.34237C15.474 6.00262 15.0312 5.90262 14.1456 5.70142L13.9176 5.6484C13.6656 5.59178 13.5396 5.56407 13.4376 5.48576C13.3368 5.40865 13.272 5.29299 13.1424 5.05925Z" fill="#B1B1B1"/>
</svg>
