<svg width="20" height="21" viewBox="0 0 20 21" fill="none" xmlns="http://www.w3.org/2000/svg">
<path d="M10.0023 14.175C9.04797 14.175 8.13276 13.7878 7.45797 13.0986C6.78318 12.4094 6.40408 11.4747 6.40408 10.5C6.40408 9.52533 6.78318 8.59058 7.45797 7.90138C8.13276 7.21219 9.04797 6.825 10.0023 6.825C10.9566 6.825 11.8718 7.21219 12.5466 7.90138C13.2214 8.59058 13.6005 9.52533 13.6005 10.5C13.6005 11.4747 13.2214 12.4094 12.5466 13.0986C11.8718 13.7878 10.9566 14.175 10.0023 14.175ZM17.6407 11.5185C17.6818 11.1825 17.7127 10.8465 17.7127 10.5C17.7127 10.1535 17.6818 9.807 17.6407 9.45L19.8099 7.7385C20.0052 7.581 20.0566 7.2975 19.9333 7.0665L17.8772 3.4335C17.7538 3.2025 17.4762 3.108 17.25 3.2025L14.6902 4.2525C14.1556 3.843 13.6005 3.486 12.9528 3.2235L12.5724 0.441002C12.5515 0.31733 12.4884 0.2052 12.3944 0.124481C12.3003 0.0437617 12.1813 -0.000335763 12.0584 1.92514e-06H7.94616C7.68915 1.92514e-06 7.47326 0.189002 7.43214 0.441002L7.05176 3.2235C6.40408 3.486 5.84894 3.843 5.31435 4.2525L2.7545 3.2025C2.52832 3.108 2.25075 3.2025 2.12738 3.4335L0.0712765 7.0665C-0.0623704 7.2975 -0.00068705 7.581 0.194643 7.7385L2.36384 9.45C2.32271 9.807 2.29187 10.1535 2.29187 10.5C2.29187 10.8465 2.32271 11.1825 2.36384 11.5185L0.194643 13.2615C-0.00068705 13.419 -0.0623704 13.7025 0.0712765 13.9335L2.12738 17.5665C2.25075 17.7975 2.52832 17.8815 2.7545 17.7975L5.31435 16.737C5.84894 17.157 6.40408 17.514 7.05176 17.7765L7.43214 20.559C7.47326 20.811 7.68915 21 7.94616 21H12.0584C12.3154 21 12.5313 20.811 12.5724 20.559L12.9528 17.7765C13.6005 17.5035 14.1556 17.157 14.6902 16.737L17.25 17.7975C17.4762 17.8815 17.7538 17.7975 17.8772 17.5665L19.9333 13.9335C20.0566 13.7025 20.0052 13.419 19.8099 13.2615L17.6407 11.5185Z" fill="white"/>
</svg>
