<svg width="33" height="33" viewBox="0 0 33 33" fill="none" xmlns="http://www.w3.org/2000/svg">
<path d="M0.917969 0.916016V4.02713H8.69575V10.2493H0.917969V13.3605H8.69575C10.4224 13.3605 11.8069 11.976 11.8069 10.2493V8.69379H19.5846V24.2493H11.8069V22.6938C11.8069 20.9671 10.4224 19.5827 8.69575 19.5827H0.917969V22.6938H8.69575V28.916H0.917969V32.0271H8.69575C10.4224 32.0271 11.8069 30.6427 11.8069 28.916V27.3605H19.5846C21.3113 27.3605 22.6957 25.976 22.6957 24.2493V18.0271H32.0291V14.916H22.6957V8.69379C22.6957 6.96713 21.3113 5.58268 19.5846 5.58268H11.8069V4.02713C11.8069 2.30046 10.4224 0.916016 8.69575 0.916016H0.917969Z" fill="#1FA2FF"/>
</svg>
