<svg width="31" height="31" viewBox="0 0 31 31" fill="none" xmlns="http://www.w3.org/2000/svg">
<path d="M0.860606 19.8885C2.74636 26.1762 8.57865 30.7614 15.4802 30.7614C23.9089 30.7614 30.7417 23.9285 30.7417 15.4998C30.7417 7.07116 23.9089 0.238281 15.4802 0.238281C7.39254 0.238281 0.774283 6.53033 0.251576 14.4859C1.24071 16.1441 1.62559 17.17 0.860606 19.8885Z" fill="white" fill-opacity="0.3"/>
<path d="M14.6938 11.6773L14.6952 11.7526L10.9609 17.1776C10.3561 17.15 9.7495 17.2563 9.17338 17.4934C8.92258 17.5953 8.68313 17.7232 8.45895 17.8749L0.258253 14.4949C0.258253 14.4949 0.0684373 17.6169 0.859176 19.9433L6.65665 22.3356C6.94281 23.6366 7.83942 24.7774 9.15668 25.3259C10.193 25.7565 11.3579 25.7581 12.3954 25.3305C13.433 24.9029 14.2584 24.081 14.6904 23.0452C14.9209 22.4935 15.0321 21.8993 15.0166 21.3016L20.3548 17.4838L20.486 17.4862C23.6838 17.4862 26.283 14.8793 26.283 11.6773C26.283 8.47522 23.6885 5.8779 20.486 5.87122C17.2897 5.87122 14.689 8.47522 14.689 11.6773H14.6938ZM13.7971 22.6704C13.1037 24.3396 11.1903 25.1251 9.52725 24.4321C8.78927 24.122 8.19109 23.5513 7.84658 22.8287L9.73376 23.6108C10.0253 23.7322 10.3379 23.7949 10.6537 23.7954C10.9694 23.7959 11.2822 23.7342 11.5741 23.6138C11.8661 23.4933 12.1314 23.3166 12.355 23.0936C12.5785 22.8706 12.756 22.6057 12.8772 22.3141C13.1225 21.7249 13.124 21.0624 12.8812 20.4721C12.6384 19.8818 12.1712 19.412 11.5823 19.1659L9.62693 18.3575C10.3795 18.0714 11.2351 18.0619 12.0354 18.3943C12.8462 18.7295 13.4662 19.361 13.7981 20.1684C14.13 20.9759 14.1281 21.8663 13.7933 22.6704M20.4912 15.5475C19.4666 15.5447 18.4847 15.136 17.7608 14.4107C17.0369 13.6855 16.63 12.7029 16.6291 11.6782C16.6302 10.6537 17.0373 9.67139 17.7612 8.94636C18.485 8.22133 19.4667 7.81269 20.4912 7.80991C21.5159 7.81244 22.4978 8.22097 23.2219 8.94602C23.946 9.67108 24.3532 10.6535 24.3543 11.6782C24.3534 12.7031 23.9463 13.6858 23.2222 14.4111C22.4981 15.1363 21.5161 15.545 20.4912 15.5475ZM17.5973 11.672C17.5966 10.9021 17.9017 10.1635 18.4454 9.61841C18.9892 9.07334 19.7271 8.76645 20.497 8.76519C22.097 8.76519 23.3986 10.0672 23.3986 11.672C23.3989 12.4421 23.0935 13.1808 22.5494 13.7257C22.0053 14.2706 21.267 14.5772 20.497 14.5779C19.7271 14.5768 18.9893 14.2701 18.4455 13.7252C17.9017 13.1803 17.5969 12.4419 17.5973 11.672Z" fill="#171717"/>
</svg>
