<svg width="29" height="29" viewBox="0 0 29 29" fill="none" xmlns="http://www.w3.org/2000/svg">
<path d="M25.4707 28.6109L20.5617 23.701L17.0323 27.2379L16.5879 26.7942C16.096 26.3012 15.85 25.6919 15.85 24.9662C15.85 24.2406 16.096 23.6313 16.5879 23.1383L23.1493 16.5627C23.6413 16.0697 24.2493 15.8231 24.9733 15.8231C25.6974 15.8231 26.3054 16.0697 26.7974 16.5627L27.2401 17.008L23.7108 20.545L28.6102 25.4646C28.8701 25.724 29 26.0268 29 26.373C29 26.7192 28.8701 27.022 28.6102 27.2814L27.2835 28.6109C27.0246 28.8703 26.7225 29 26.3771 29C26.0316 29 25.7295 28.8703 25.4707 28.6109ZM28.9374 4.14309L11.2233 21.926L12.4105 23.1077C12.9024 23.6008 13.1484 24.2101 13.1484 24.9357C13.1484 25.6613 12.9024 26.2701 12.4105 26.7621L11.9661 27.2074L8.43674 23.6704L3.52774 28.5804C3.26892 28.8398 2.96679 28.9695 2.62134 28.9695C2.27589 28.9695 1.97376 28.8398 1.71494 28.5804L0.388228 27.2508C0.12941 26.9914 0 26.6886 0 26.3424C0 25.9962 0.12941 25.6929 0.388228 25.4325L5.2876 20.5129L1.75826 16.9759L2.20263 16.5322C2.6946 16.0391 3.30208 15.7926 4.02506 15.7926C4.74911 15.7926 5.35712 16.0391 5.84909 16.5322L7.05869 17.754L24.8033 0H28.9374V4.14309ZM7.50788 11.6383L0.0609616 4.14309V0H4.19511L11.6116 7.46302L10.4982 8.57074L3.5502 1.60772H1.66521V3.49678L8.64369 10.4904L7.50788 11.6383ZM10.0875 20.7797L27.3332 3.49678V1.60772H25.4482L8.20252 18.8907L10.0875 20.7797ZM10.0875 20.7797L9.15705 19.8248L8.20252 18.8907L9.15545 19.8232L10.0875 20.7797Z" fill="white"/>
</svg>
