<svg width="28" height="29" viewBox="0 0 28 29" fill="none" xmlns="http://www.w3.org/2000/svg">
<path d="M28 8.61217V8.7142C28 9.91611 28 10.5185 27.7102 11.0104C27.4204 11.5024 26.8926 11.7945 25.8398 12.38L24.7296 12.995C25.494 10.4123 25.7502 7.63667 25.844 5.26358L25.858 4.95472L25.8608 4.88205C26.7722 5.1979 27.2846 5.43409 27.6038 5.87572C28 6.42497 28 7.1545 28 8.61217ZM0 8.61217V8.7142C0 9.91611 2.08616e-08 10.5185 0.2898 11.0104C0.5796 11.5024 1.1074 11.7945 2.1602 12.38L3.2718 12.995C2.506 10.4123 2.2498 7.63667 2.156 5.26358L2.142 4.95472L2.1406 4.88205C1.2278 5.1979 0.7154 5.43409 0.3962 5.87572C0 6.42497 0 7.1559 0 8.61217Z" fill="white"/>
<path fill-rule="evenodd" clip-rule="evenodd" d="M14 0.000316404C16.4976 0.000316404 18.5542 0.219736 20.1278 0.485275C21.7224 0.753609 22.519 0.887776 23.1854 1.70676C23.8518 2.52573 23.8154 3.4104 23.7454 5.17973C23.5046 11.2578 22.1914 18.848 15.05 19.5188V24.4579H17.052C17.3755 24.4581 17.689 24.5701 17.9391 24.775C18.1893 24.9798 18.3606 25.2648 18.424 25.5815L18.69 26.9036H22.4C22.6785 26.9036 22.9455 27.0141 23.1425 27.2106C23.3394 27.4072 23.45 27.6738 23.45 27.9518C23.45 28.2298 23.3394 28.4964 23.1425 28.693C22.9455 28.8896 22.6785 29 22.4 29H5.6C5.32152 29 5.05445 28.8896 4.85754 28.693C4.66062 28.4964 4.55 28.2298 4.55 27.9518C4.55 27.6738 4.66062 27.4072 4.85754 27.2106C5.05445 27.0141 5.32152 26.9036 5.6 26.9036H9.31L9.576 25.5815C9.63941 25.2648 9.81075 24.9798 10.0609 24.775C10.311 24.5701 10.6245 24.4581 10.948 24.4579H12.95V19.5188C5.81 18.848 4.4968 11.2564 4.256 5.17973C4.1846 3.4104 4.1496 2.52434 4.816 1.70676C5.481 0.887776 6.2776 0.753609 7.8722 0.485275C9.89777 0.154044 11.9475 -0.00816931 14 0.000316404ZM15.3328 5.86873L15.1956 5.62276C14.6636 4.66822 14.3976 4.19304 14 4.19304C13.6024 4.19304 13.3364 4.66822 12.8044 5.62276L12.6672 5.86873C12.516 6.13986 12.4404 6.27403 12.3228 6.36348C12.2038 6.45292 12.0568 6.48646 11.7628 6.55215L11.4968 6.61364C10.4636 6.84704 9.947 6.96304 9.8238 7.35715C9.7006 7.75127 10.0534 8.16355 10.7576 8.98533L10.9396 9.19776C11.1398 9.43115 11.2406 9.54715 11.2854 9.6925C11.3302 9.83785 11.3148 9.99298 11.2854 10.3046L11.2574 10.5883C11.151 11.6854 11.0978 12.2347 11.4184 12.4779C11.7404 12.721 12.2248 12.4988 13.1922 12.0544L13.4414 11.9398C13.7172 11.814 13.8544 11.7511 14 11.7511C14.1456 11.7511 14.2828 11.814 14.5586 11.9398L14.8078 12.0544C15.7752 12.5002 16.2596 12.721 16.5816 12.4779C16.9036 12.2347 16.849 11.6854 16.7426 10.5883L16.7146 10.3046C16.6852 9.99298 16.6698 9.83785 16.7146 9.6925C16.7594 9.54715 16.8602 9.43115 17.0604 9.19776L17.2424 8.98533C17.9466 8.16355 18.2994 7.75267 18.1762 7.35715C18.053 6.96304 17.5364 6.84704 16.5032 6.61364L16.2372 6.55215C15.9432 6.48646 15.7962 6.45432 15.6772 6.36348C15.5596 6.27403 15.484 6.13986 15.3328 5.86873Z" fill="white"/>
</svg>
